<svg width="380" height="98" viewBox="0 0 380 98" fill="none" xmlns="http://www.w3.org/2000/svg">
<path d="M235.014 0C248.03 0 259.284 6.79035 264.646 16.6494C266.863 13.443 270.812 11.3077 275.316 11.3076C279.782 11.3076 283.701 13.4071 285.929 16.5674C288.944 8.57657 297.349 2.82719 307.245 2.82715C316.447 2.82715 324.358 7.79914 327.847 14.9209C331.109 11.5518 335.913 9.42285 341.268 9.42285C351.096 9.42303 359.063 16.5953 359.063 25.4424C359.063 25.4587 359.063 25.4749 359.062 25.4912C370.761 26.2165 380 34.988 380 45.7021C380 53.253 375.41 59.8377 368.605 63.3223C370.487 65.2992 371.625 67.8656 371.625 70.6729C371.625 76.9179 366.001 81.9804 359.063 81.9805C356.681 81.9805 354.454 81.3835 352.556 80.3467C350.514 84.1037 346.227 86.6923 341.268 86.6924C337.872 86.6924 334.792 85.4768 332.531 83.5059C329.437 88.2318 323.726 91.4042 317.19 91.4043C309.573 91.4043 303.073 87.0954 300.534 81.0381H300.439C297.555 89.2333 289.039 95.1729 278.98 95.1729C268.922 95.1727 260.405 89.2333 257.521 81.0381H256.404C254.19 82.7963 251.284 83.8651 248.1 83.8652C245.052 83.8652 242.258 82.8883 240.083 81.2637C234.547 90.6577 223.573 97.0576 210.937 97.0576C198.428 97.0576 187.547 90.7881 181.958 81.5498C178.905 89.4792 170.536 95.1729 160.688 95.1729C151.159 95.1728 143.014 89.842 139.73 82.3125C137.432 84.9757 133.844 86.6923 129.808 86.6924C126.382 86.6924 123.278 85.4564 121.012 83.4551C115.265 92.1626 104.713 98 92.6445 98C81.0281 98 70.8154 92.5924 64.9414 84.4219C61.7356 88.6369 56.3514 91.4043 50.248 91.4043C42.7002 91.4043 36.2503 87.1739 33.6631 81.2041C30.3746 82.8969 26.5665 83.8652 22.5068 83.8652C10.0766 83.8652 0 74.7945 0 63.6055C7.93008e-05 58.6702 1.96058 54.1471 5.21875 50.6328C2.05873 48.5792 0.000136073 45.2383 0 41.4619C0 35.4484 5.21491 30.5332 11.7959 30.1768C11.6114 29.252 11.5156 28.2997 11.5156 27.3271C11.5156 18.48 19.483 11.3076 29.3115 11.3076C34.4096 11.3077 39.0065 13.2379 42.251 16.3301C47.6805 6.64369 58.8319 0 71.708 0C85.124 7.30544e-06 96.6675 7.21254 101.817 17.5645C103.878 13.8553 108.137 11.3077 113.058 11.3076C118.527 11.3076 123.18 14.4542 124.904 18.8457H126.115C128.281 9.69269 137.313 2.82715 148.127 2.82715C158.941 2.82725 167.973 9.6927 170.139 18.8457H171.131C173.014 11.8177 180.044 6.59573 188.43 6.5957C196.104 6.5957 202.645 10.9689 205.143 17.0977C210.404 6.99653 221.8 4.80119e-05 235.014 0Z" fill="#BEBEBE"/>
<path d="M235.014 0C248.03 0 259.284 6.79035 264.646 16.6494C266.863 13.443 270.812 11.3077 275.316 11.3076C279.782 11.3076 283.701 13.4071 285.929 16.5674C288.944 8.57657 297.349 2.82719 307.245 2.82715C316.447 2.82715 324.358 7.79914 327.847 14.9209C331.109 11.5518 335.913 9.42285 341.268 9.42285C351.096 9.42303 359.063 16.5953 359.063 25.4424C359.063 25.4587 359.063 25.4749 359.062 25.4912C370.761 26.2165 380 34.988 380 45.7021C380 53.253 375.41 59.8377 368.605 63.3223C370.487 65.2992 371.625 67.8656 371.625 70.6729C371.625 76.9179 366.001 81.9804 359.063 81.9805C356.681 81.9805 354.454 81.3835 352.556 80.3467C350.514 84.1037 346.227 86.6923 341.268 86.6924C337.872 86.6924 334.792 85.4768 332.531 83.5059C329.437 88.2318 323.726 91.4042 317.19 91.4043C309.573 91.4043 303.073 87.0954 300.534 81.0381H300.439C297.555 89.2333 289.039 95.1729 278.98 95.1729C268.922 95.1727 260.405 89.2333 257.521 81.0381H256.404C254.19 82.7963 251.284 83.8651 248.1 83.8652C245.052 83.8652 242.258 82.8883 240.083 81.2637C234.547 90.6577 223.573 97.0576 210.937 97.0576C198.428 97.0576 187.547 90.7881 181.958 81.5498C178.905 89.4792 170.536 95.1729 160.688 95.1729C151.159 95.1728 143.014 89.842 139.73 82.3125C137.432 84.9757 133.844 86.6923 129.808 86.6924C126.382 86.6924 123.278 85.4564 121.012 83.4551C115.265 92.1626 104.713 98 92.6445 98C81.0281 98 70.8154 92.5924 64.9414 84.4219C61.7356 88.6369 56.3514 91.4043 50.248 91.4043C42.7002 91.4043 36.2503 87.1739 33.6631 81.2041C30.3746 82.8969 26.5665 83.8652 22.5068 83.8652C10.0766 83.8652 0 74.7945 0 63.6055C7.93008e-05 58.6702 1.96058 54.1471 5.21875 50.6328C2.05873 48.5792 0.000136073 45.2383 0 41.4619C0 35.4484 5.21491 30.5332 11.7959 30.1768C11.6114 29.252 11.5156 28.2997 11.5156 27.3271C11.5156 18.48 19.483 11.3076 29.3115 11.3076C34.4096 11.3077 39.0065 13.2379 42.251 16.3301C47.6805 6.64369 58.8319 0 71.708 0C85.124 7.30544e-06 96.6675 7.21254 101.817 17.5645C103.878 13.8553 108.137 11.3077 113.058 11.3076C118.527 11.3076 123.18 14.4542 124.904 18.8457H126.115C128.281 9.69269 137.313 2.82715 148.127 2.82715C158.941 2.82725 167.973 9.6927 170.139 18.8457H171.131C173.014 11.8177 180.044 6.59573 188.43 6.5957C196.104 6.5957 202.645 10.9689 205.143 17.0977C210.404 6.99653 221.8 4.80119e-05 235.014 0Z" fill="url(#paint0_linear_6_613)" fill-opacity="0.5"/>
<defs>
<linearGradient id="paint0_linear_6_613" x1="190" y1="-41" x2="190" y2="174" gradientUnits="userSpaceOnUse">
<stop offset="0.298077" stop-color="white"/>
<stop offset="1" stop-color="#030303"/>
</linearGradient>
</defs>
</svg>
