<svg width="57" height="57" viewBox="0 0 57 57" fill="none" xmlns="http://www.w3.org/2000/svg">
<g clip-path="url(#clip0_16_27)">
<path d="M2.62927 10.229V24.229H16.6293" stroke="black" stroke-width="4" stroke-linecap="round" stroke-linejoin="round"/>
<path d="M53.9626 47.5625V33.5625H39.9626" stroke="black" stroke-width="4" stroke-linecap="round" stroke-linejoin="round"/>
<path d="M48.1059 21.8958C46.9225 18.5517 44.9113 15.5618 42.2598 13.2052C39.6084 10.8485 36.4032 9.20197 32.9433 8.41912C29.4834 7.63627 25.8815 7.74264 22.4738 8.72832C19.0661 9.714 15.9637 11.5468 13.4559 14.0558L2.62927 24.2292M53.9626 33.5625L43.1359 43.7359C40.6282 46.2449 37.5257 48.0777 34.118 49.0634C30.7104 50.0491 27.1085 50.1554 23.6486 49.3726C20.1887 48.5897 16.9835 46.9432 14.332 44.5865C11.6806 42.2299 9.66933 39.24 8.48594 35.8958" stroke="black" stroke-width="4" stroke-linecap="round" stroke-linejoin="round"/>
</g>
<defs>
<clipPath id="clip0_16_27">
<rect width="56" height="56" fill="white" transform="translate(0.295959 0.895752)"/>
</clipPath>
</defs>
</svg>
