<svg width="233" height="326" viewBox="0 0 233 326" fill="none" xmlns="http://www.w3.org/2000/svg">
<g opacity="0.6">
<path d="M12.2121 126C14.8984 126 17.3161 127.311 19 129.401V143.599C17.3161 145.689 14.8984 147 12.2121 147C7.12441 147 3 142.299 3 136.5C3 130.701 7.12441 126 12.2121 126Z" fill="#231D64"/>
<ellipse cx="6.5" cy="8.5" rx="6.5" ry="8.5" transform="matrix(-1 0 0 1 19 128)" fill="#5B5468"/>
<path d="M2.97559 95.1211C3.99909 97.0479 5.35957 99.9003 6.7334 103.642C9.48157 111.126 12.2843 122.165 12.5635 136.471C12.8432 150.809 10.0338 161.633 7.13086 168.898C5.68018 172.529 4.2074 175.268 3.08789 177.11C3.02611 177.212 2.96387 177.31 2.9043 177.406C8.9463 177.02 14.8609 175.433 20.2979 172.726L32.5557 166.622C34.9724 165.419 36.5 162.951 36.5 160.251V112.196C36.4999 109.371 34.8292 106.814 32.2422 105.679L16.3643 98.7139C12.5625 97.0462 8.5623 95.8735 4.46191 95.2246L2.89844 94.9766C2.92391 95.0242 2.94967 95.0723 2.97559 95.1211Z" fill="#5B5468" stroke="#231D64" stroke-width="3"/>
<path d="M66 76.5V63.5L48 52.5L71.5 39.5L58 23L86.5 39.5L71.5 52.5L82 63.5V76.5H66Z" fill="#5B5468" stroke="#231D64" stroke-width="3"/>
<path d="M144.572 78.5H130L133 16L137.5 16.5H135.86L133.072 75.5H141.428L138.525 16.5H137.5L141.5 16L144.572 78.5Z" fill="#231D64"/>
<path d="M133.072 75.5H141.428L138.525 16.5H137.5H135.86L133.072 75.5Z" fill="#5B5468"/>
<path d="M137 1.5C141.876 1.5 145.5 5.9477 145.5 11C145.5 16.0523 141.876 20.5 137 20.5C132.124 20.5 128.5 16.0523 128.5 11C128.5 5.9477 132.124 1.5 137 1.5Z" fill="#5B5468" stroke="#231D64" stroke-width="3"/>
<path d="M137.247 28.5C143.908 28.5 150.606 28.5229 154.67 29.5996C156.704 30.1387 157.619 30.719 158.037 31.165C158.386 31.5371 158.5 31.9317 158.5 32.5752C158.5 33.2184 158.386 33.6124 158.037 33.9844C157.632 34.417 156.759 34.9749 154.851 35.5H118.654C116.76 34.9764 116.074 34.4368 115.809 34.0928C115.567 33.7798 115.5 33.426 115.5 32.5752C115.5 31.724 115.567 31.3697 115.809 31.0566C116.078 30.7074 116.78 30.156 118.741 29.625C127.974 28.497 129.416 28.5 137.247 28.5Z" fill="#5B5468" stroke="#231D64" stroke-width="3"/>
<path d="M137.193 46.5C139.772 46.5 142.374 46.5029 144.747 46.6309C147.138 46.7598 149.188 47.0118 150.691 47.4697C152.233 47.9394 152.876 48.4288 153.157 48.7734C153.401 49.0727 153.5 49.4165 153.5 50.0176C153.5 50.6185 153.401 50.9625 153.157 51.2617C152.889 51.5911 152.288 52.0499 150.891 52.5H122.724C121.348 52.0545 120.897 51.6199 120.731 51.373C120.557 51.1135 120.5 50.797 120.5 50.0176C120.5 49.2382 120.557 48.9216 120.731 48.6621C120.901 48.4093 121.369 47.9577 122.825 47.501C129.983 46.4961 131.097 46.5 137.193 46.5Z" fill="#5B5468" stroke="#231D64" stroke-width="3"/>
<path d="M163.191 189.5L183.837 247.503L183.876 247.613L183.932 247.715L209.432 294.715L209.671 295.156L210.128 295.365L229.119 304.02L230.914 317.928L224.408 324H185.773L169.183 310.825L169.109 310.768L169.03 310.719L158.208 304.132L152.575 189.5H163.191Z" fill="#5B5468" stroke="#231D64" stroke-width="3"/>
<path d="M75.7061 202.054L59.1416 248.068C58.5589 249.687 57.498 251.09 56.1006 252.094L44.5596 260.38C41.7641 262.387 38.0342 262.51 35.1123 260.692L21.292 252.093C20.0336 251.31 19.405 249.819 19.7227 248.371L22.9102 233.852C23.2198 232.441 23.8835 231.133 24.8389 230.05L59.7246 190.512L75.7061 202.054Z" fill="#5B5468" stroke="#231D64" stroke-width="3"/>
<path d="M143.722 188.5L158.26 194.128L162.988 210.82L159.752 273.605L159.744 273.755L159.767 273.902L167.262 324.5H125V294H96V324.5H59.3379L63.4697 304.301L63.4893 304.207L63.4961 304.11L65.4961 277.11L65.5049 276.986L65.4932 276.861L59.042 207.396L68.0752 194.085L76.4541 188.5H143.722Z" fill="#5B5468" stroke="#231D64" stroke-width="3"/>
<path d="M161.716 77.3691C168.405 77.3691 174.774 80.2334 179.212 85.2383L185.915 92.7979C187.028 94.0531 187.623 95.6842 187.582 97.3613L185.695 174.021C185.642 176.19 184.531 178.196 182.721 179.392L169.899 187.861L169.847 187.896L169.792 187.926L163.088 191.65C158.389 194.261 153.102 195.631 147.727 195.631H68.5225C66.0551 195.631 63.5956 195.343 61.1953 194.771L57.5762 193.909C55.1049 193.321 52.7564 192.302 50.6387 190.898L33.2715 179.392C31.4658 178.195 30.358 176.192 30.3047 174.026L28.4189 97.4102C28.3767 95.6945 29.001 94.0284 30.1611 92.7637L37.333 84.9453C41.7616 80.1173 48.0129 77.3691 54.5645 77.3691H161.716Z" fill="#5B5468" stroke="#231D64" stroke-width="3.26263"/>
<path d="M216.212 126C213.358 126 210.789 127.311 209 129.401V143.599C210.789 145.689 213.358 147 216.212 147C221.618 147 226 142.299 226 136.5C226 130.701 221.618 126 216.212 126Z" fill="#231D64"/>
<ellipse cx="216" cy="136.5" rx="7" ry="8.5" fill="#5B5468"/>
<path d="M221.713 95.0918C220.315 96.9002 218.533 99.4817 216.74 102.84C212.89 110.054 208.99 120.838 208.698 135.184C208.406 149.562 212.314 160.694 216.309 168.241C218.305 172.013 220.323 174.89 221.85 176.831C221.932 176.936 222.015 177.037 222.095 177.137C215.975 176.728 209.977 175.162 204.425 172.51L191.55 166.36C189.076 165.179 187.5 162.68 187.5 159.938V112.25C187.5 109.386 189.217 106.8 191.856 105.689L208.846 98.541C212.54 96.9865 216.414 95.8965 220.377 95.2949L221.713 95.0918Z" fill="#5B5468" stroke="#231D64" stroke-width="3"/>
<rect x="42" y="94" width="49" height="64" rx="5" fill="#231D64"/>
<path d="M83 174.5C86.5554 178.702 91.3585 181.746 96.6844 183.135C98.8858 183.709 101.165 184 103.44 184C107.094 184 110.732 183.258 114.091 181.818L116 181L118.545 179.727C122.788 177.606 126.467 174.509 129.281 170.69L132 167" stroke="#231D64" stroke-width="5"/>
<rect x="114" y="94" width="53" height="64" rx="5" fill="#231D64"/>
<rect x="48" y="99" width="18" height="27" fill="#5B5468"/>
<rect x="119" y="99" width="20" height="27" fill="#5B5468"/>
<path d="M66.0837 171.695L56.0406 177.913L55.3305 178.352L55.3308 179.188L55.3308 187.687L55.3302 190.632L57.7122 188.901L61.0223 186.493L74.5044 194.862L85.4798 206.294L76.7479 217.626L67.4277 225.012L67.157 225.227L67.0075 225.538L48.5302 264.013C48.0351 265.044 47.3368 265.964 46.4776 266.719L42.1297 270.538C40.1007 272.321 37.3453 273.032 34.7068 272.456L21.7477 269.628L11.9562 259.877L11.9561 245.758L32.8677 210.821L33.0195 210.568L33.0632 210.276L35.1511 196.481L40.6613 172.912L56.6164 160.609L66.0837 171.695Z" fill="#5B5468" stroke="#231D64" stroke-width="3"/>
<path d="M103.5 222.5C109.323 222.5 114.5 226.522 114.5 232C114.5 237.478 109.323 241.5 103.5 241.5C97.6768 241.5 92.5 237.478 92.5 232C92.5 226.522 97.6768 222.5 103.5 222.5Z" fill="#ACAC45" stroke="#231D64" stroke-width="3"/>
<path d="M116 225.5C120.664 225.5 124.691 227.845 126.835 231.264L127.432 232.215L128.512 231.911C129.46 231.644 130.462 231.5 131.5 231.5C137.575 231.5 142.5 236.425 142.5 242.5C142.5 248.575 137.575 253.5 131.5 253.5C129.536 253.5 127.697 252.984 126.102 252.083L124.915 251.412L124.135 252.53C123.638 253.242 122.614 253.999 121.057 254.579C119.527 255.149 117.608 255.5 115.5 255.5C113.495 255.5 111.659 255.182 110.167 254.659C108.653 254.129 107.596 253.424 107.021 252.73L106.361 251.936L105.383 252.267C103.095 253.043 100.4 253.5 97.5 253.5C93.1582 253.5 89.3009 252.484 86.5811 250.918C83.8209 249.329 82.5 247.358 82.5 245.5C82.5 243.642 83.8209 241.671 86.5811 240.082C89.3009 238.516 93.1582 237.5 97.5 237.5C98.9851 237.5 100.419 237.621 101.774 237.843L103.428 238.113L103.515 236.44C103.827 230.445 109.202 225.5 116 225.5Z" fill="#A1A1A1" stroke="#231D64" stroke-width="3"/>
</g>
</svg>
