<svg width="253" height="324" viewBox="0 0 253 324" fill="none" xmlns="http://www.w3.org/2000/svg">
<g opacity="0.6">
<path d="M19.1706 140.284C21.7972 139.721 24.4359 140.495 26.5207 142.186L29.4972 156.068C28.2891 158.466 26.1998 160.254 23.5733 160.817C18.5986 161.884 13.5803 158.152 12.3645 152.482C11.1488 146.812 14.1959 141.351 19.1706 140.284Z" fill="#231D64"/>
<ellipse cx="6.5" cy="8.5" rx="6.5" ry="8.5" transform="matrix(-0.977776 0.209652 0.209652 0.977776 26.2275 140.816)" fill="#5B5468"/>
<path d="M3.66545 112.028C5.07017 113.697 6.99842 116.201 9.12609 119.571C13.3822 126.313 18.4372 136.519 21.7093 150.448C24.9889 164.409 24.5112 175.582 23.1959 183.294C22.5386 187.148 21.6728 190.135 20.9644 192.171C20.9253 192.284 20.885 192.392 20.847 192.499C26.6737 190.855 32.1241 188.063 36.8726 184.276L47.5784 175.738C49.6891 174.055 50.6654 171.321 50.0994 168.682L40.0247 121.695C39.4323 118.933 37.2625 116.782 34.4951 116.215L17.5098 112.734C13.4429 111.9 9.28575 111.592 5.14045 111.817L3.55971 111.902C3.5946 111.944 3.62989 111.985 3.66545 112.028Z" fill="#5B5468" stroke="#231D64" stroke-width="3"/>
<path d="M59.4603 86.5415L59.4603 74.1597L40.5979 76.0813L37.0706 61.557C26.4737 60.6631 4.49478 63.8394 4.49478 63.8394L43.8139 51.3044L51.1799 62.7321L75.3542 63.8394L75.3542 84.7015L59.4603 86.5415Z" fill="#5B5468" stroke="#231D64" stroke-width="3"/>
<path d="M144.773 76.2683L130.436 78.8768L122.2 16.8494L126.716 16.5357L125.103 16.8294L132.922 75.3753L141.142 73.8796L127.724 16.3523L126.716 16.5357L130.562 15.3278L144.773 76.2683Z" fill="#231D64"/>
<path d="M132.922 75.3753L141.142 73.8796L127.724 16.3523L126.716 16.5357L125.103 16.8294L132.922 75.3753Z" fill="#5B5468"/>
<path d="M123.539 1.86751C128.337 0.994602 132.698 4.72179 133.603 9.69248C134.507 14.6632 131.738 19.6877 126.94 20.5606C122.143 21.4335 117.782 17.7063 116.877 12.7356C115.973 7.76495 118.742 2.74041 123.539 1.86751Z" fill="#5B5468" stroke="#231D64" stroke-width="3"/>
<path d="M128.617 28.3872C135.17 27.1948 141.764 26.0183 145.955 26.3502C148.053 26.5163 149.057 26.9236 149.548 27.2875C149.958 27.5912 150.141 27.959 150.256 28.5921C150.371 29.2249 150.329 29.6329 150.053 30.0613C149.731 30.5595 148.972 31.2647 147.189 32.1229L111.577 38.6024C109.619 38.4265 108.849 38.0182 108.526 37.7273C108.232 37.4626 108.103 37.1265 107.95 36.2895C107.798 35.452 107.8 35.0914 107.982 34.7402C108.185 34.3483 108.777 33.6801 110.611 32.8067C119.493 30.0442 120.912 29.7891 128.617 28.3872Z" fill="#5B5468" stroke="#231D64" stroke-width="3"/>
<path d="M131.786 46.106C134.323 45.6444 136.884 45.1815 139.241 44.8826C141.617 44.5814 143.679 44.4623 145.24 44.6438C146.84 44.83 147.561 45.1962 147.899 45.485C148.193 45.7358 148.351 46.0564 148.459 46.6477C148.567 47.2389 148.531 47.5951 148.345 47.9331C148.139 48.3053 147.631 48.8642 146.336 49.5572L118.624 54.5993C117.191 54.4072 116.67 54.0604 116.462 53.8472C116.245 53.623 116.132 53.3219 115.992 52.555C115.853 51.7882 115.852 51.4665 115.977 51.18C116.099 50.9009 116.479 50.3728 117.829 49.6629C124.691 47.3929 125.789 47.1972 131.786 46.106Z" fill="#5B5468" stroke="#231D64" stroke-width="3"/>
<path d="M183.191 187.5L203.837 245.503L203.876 245.613L203.932 245.715L229.432 292.715L229.671 293.156L230.128 293.365L249.119 302.02L250.914 315.928L244.408 322H205.773L189.183 308.825L189.109 308.768L189.03 308.719L178.208 302.132L172.575 187.5H183.191Z" fill="#5B5468" stroke="#231D64" stroke-width="3"/>
<path d="M100.835 200.255L87.6299 257.068L87.6162 257.128L87.6064 257.189L78.2041 320.914H30.8467L29.1465 314.453C28.7734 313.035 28.7734 311.545 29.1465 310.127L30.9756 303.178L45.3203 295.458L45.8516 295.173L46.0371 294.6L80.3604 188.708L100.835 200.255Z" fill="#5B5468" stroke="#231D64" stroke-width="3"/>
<path d="M85.333 293.442L85.3281 293.384L79.0254 212.045L88.1865 192.011L96.4541 186.5H163.687L170.855 189.637L182.981 217.77L179.164 286.468L179.157 286.586L179.169 286.704L182.838 322.5H141.973V292H118.422V322.5H83.2002L85.2803 314.832L85.333 314.639V293.442Z" fill="#5B5468" stroke="#231D64" stroke-width="3"/>
<path d="M159.31 72.6376C165.938 71.7414 172.634 73.7264 177.702 78.0915L185.358 84.6848C186.629 85.7796 187.438 87.3163 187.621 88.9838L196.023 165.206C196.261 167.362 195.428 169.498 193.795 170.926L182.224 181.037L182.176 181.078L182.126 181.115L175.981 185.705C171.675 188.921 166.619 190.987 161.292 191.707L82.8019 202.319C80.3568 202.65 77.8809 202.694 75.4257 202.45L71.7236 202.08C69.1958 201.828 66.7319 201.133 64.4453 200.026L45.693 190.95C43.7432 190.006 42.377 188.169 42.034 186.03L29.8999 110.358C29.6282 108.663 30.0236 106.928 31.0038 105.52L37.0635 96.8109C40.8052 91.433 46.632 87.8721 53.1245 86.9942L159.31 72.6376Z" fill="#5B5468" stroke="#231D64" stroke-width="3.26263"/>
<path d="M220.803 112.821C217.974 113.201 215.603 114.842 214.109 117.153L216.002 131.224C218.054 133.057 220.774 134.014 223.603 133.633C228.96 132.912 232.677 127.669 231.903 121.922C231.13 116.175 226.16 112.1 220.803 112.821Z" fill="#231D64"/>
<ellipse cx="221.993" cy="123.255" rx="7" ry="8.5" transform="rotate(-7.66169 221.993 123.255)" fill="#5B5468"/>
<path d="M222.133 81.4549C220.988 83.4335 219.566 86.2296 218.238 89.7967C215.383 97.4595 212.956 108.667 214.58 122.924C216.207 137.212 221.564 147.725 226.529 154.672C229.011 158.144 231.394 160.726 233.166 162.446C233.262 162.539 233.358 162.628 233.45 162.716C227.33 163.127 221.177 162.375 215.321 160.487L201.741 156.109C199.131 155.267 197.237 153.001 196.871 150.284L190.513 103.021C190.131 100.183 191.488 97.3914 193.956 95.9385L209.84 86.5888C213.295 84.5555 216.989 82.9589 220.836 81.8343L222.133 81.4549Z" fill="#5B5468" stroke="#231D64" stroke-width="3"/>
<path d="M47.6257 131.241C47.414 129.28 48.3747 127.378 50.0785 126.384L86.2503 105.296C89.3545 103.486 93.2975 105.444 93.7319 109.011L99.9465 160.037C100.28 162.778 98.3288 165.271 95.5876 165.604L56.9419 170.311C54.1742 170.648 51.6656 168.657 51.3663 165.885L47.6257 131.241Z" fill="#231D64"/>
<path d="M115.489 106.293C115.025 102.747 118.325 99.8753 121.772 100.823L166.047 112.994C167.956 113.519 169.376 115.121 169.667 117.08L174.617 150.38C175.028 153.146 173.092 155.711 170.32 156.073L127.771 161.638C125.032 161.997 122.522 160.067 122.164 157.329L115.489 106.293Z" fill="#231D64"/>
<path d="M75.3569 121.516L75.3569 116.142L91.1254 106.787L95.6468 137.657L77.9135 139.166L75.3569 121.516Z" fill="#5B5468"/>
<path d="M141.838 109.133L163.112 114.302L165.501 132.259L145.675 134.896L141.838 109.133Z" fill="#5B5468"/>
<path d="M118 223.364C121.619 223.364 125.14 224.793 127.519 227.215C129.066 226.667 130.745 226.365 132.5 226.365C137.667 226.365 142.18 228.965 144.605 232.832C145.685 232.528 146.823 232.365 148 232.365C154.904 232.365 160.5 237.962 160.5 244.865C160.5 251.769 154.903 257.365 148 257.365C145.77 257.365 143.677 256.778 141.864 255.754C140.393 257.861 136.532 259.365 132 259.365C127.686 259.365 123.981 258.001 122.365 256.053C119.912 256.885 117.053 257.365 114 257.365C104.888 257.365 97.5005 253.112 97.5 247.865C97.5 244.104 101.298 240.853 106.806 239.314C105.977 237.861 105.5 236.195 105.5 234.365C105.5 227.828 111.6 223.364 118 223.364Z" fill="#231D64"/>
<path d="M110.54 187.435L116.411 183.699C118.016 182.678 119.878 182.136 121.78 182.136H128.34C129.255 182.136 130.166 182.261 131.047 182.509L137.795 184.407" stroke="#231D64" stroke-width="5"/>
</g>
</svg>
