<svg width="60" height="60" viewBox="0 0 60 60" fill="none" xmlns="http://www.w3.org/2000/svg">
<path d="M23.8345 12.0806L48.0233 43.0349L33.9328 15.2063L23.8345 12.0806Z" fill="white"/>
<path d="M6.43175 25.7731L29.3521 38.0188L25.6481 29.3361L45.6251 46.7762L48.0233 43.0349L17.1499 14.8767L6.43175 25.7731Z" fill="white"/>
<path d="M48.0233 43.0349L45.6251 46.7762L25.6481 29.3361L29.3521 38.0188L6.43176 25.7731L17.1499 14.8767L48.0233 43.0349ZM48.0233 43.0349L23.8345 12.0806L33.9328 15.2063L48.0233 43.0349Z" stroke="black" stroke-width="1.38805"/>
<path d="M48.0233 43.0349L45.6251 46.7762L25.6481 29.3361L29.3521 38.0188L6.43176 25.7731L17.1499 14.8767L48.0233 43.0349ZM48.0233 43.0349L23.8345 12.0806L33.9328 15.2063L48.0233 43.0349Z" stroke="white" stroke-width="1.38805"/>
</svg>
